<svg xmlns="http://www.w3.org/2000/svg" width="24" height="24" fill="none">
  <g fill="#0F1828" clip-path="url(#a)">
    <path d="M18.4163 11.417h-1.1666v-1.1667c0-.1547-.0615-.30306-.1709-.41245-.1094-.1094-.2578-.17086-.4125-.17086s-.303.06146-.4124.17086c-.1094.10939-.1709.25775-.1709.41245v1.1667h-1.1667c-.1547 0-.303.0614-.4124.1708s-.1709.2578-.1709.4125.0615.3031.1709.4125.2577.1709.4124.1709h1.1667v1.1666c0 .1547.0615.3031.1709.4125s.2577.1708.4124.1708.3031-.0614.4125-.1708.1709-.2578.1709-.4125v-1.1666h1.1666c.1547 0 .3031-.0615.4125-.1709s.1709-.2578.1709-.4125-.0615-.3031-.1709-.4125-.2578-.1708-.4125-.1708ZM10.25 12c.6922 0 1.3689-.2053 1.9445-.5899.5756-.3845 1.0242-.9312 1.2891-1.57071.2649-.63954.3342-1.34327.1991-2.0222-.135-.67894-.4683-1.30258-.9578-1.79206-.4895-.48949-1.1131-.82283-1.7921-.95788-.6789-.13505-1.38265-.06573-2.02219.19917-.63954.26491-1.18617.71351-1.57075 1.28909C6.95527 7.13108 6.75 7.80777 6.75 8.5c.00093.92798.36997 1.8177 1.02615 2.4739C8.43233 11.63 9.32203 11.9991 10.25 12Zm0-5.83333c.4615 0 .9126.13685 1.2963.39324.3837.25639.6828.6208.8594 1.04716.1766.42636.2228.89552.1328 1.34814-.09.45263-.3123.86839-.6386 1.19469-.3263.3263-.7421.5486-1.1947.6386-.4526.09-.92177.0438-1.34813-.1328-.42636-.1766-.79078-.4757-1.04717-.85937-.25639-.38371-.39323-.83484-.39323-1.29633 0-.61884.24583-1.21233.68341-1.64991.43759-.43759 1.03108-.68342 1.64992-.68342Zm0 7.00033c-1.39191.0015-2.72637.5552-3.71061 1.5394C5.55516 15.6906 5.00154 17.0251 5 18.417c0 .1547.06146.3031.17085.4125.1094.1094.25777.1708.41248.1708.15471 0 .30309-.0614.41248-.1708.1094-.1094.17086-.2578.17086-.4125 0-1.083.4302-2.1216 1.19598-2.8874.76577-.7657 1.80438-1.1959 2.88735-1.1959 1.083 0 2.1216.4302 2.8874 1.1959.7657.7658 1.1959 1.8044 1.1959 2.8874 0 .1547.0615.3031.1709.4125s.2578.1708.4125.1708.303-.0614.4124-.1708.1709-.2578.1709-.4125c-.0015-1.3919-.5552-2.7264-1.5394-3.7106-.9842-.9842-2.3187-1.5379-3.7106-1.5394Z"/>
  </g>
  <defs>
    <clipPath id="a">
      <path fill="#fff" d="M5 5h14v14H5z"/>
    </clipPath>
  </defs>
</svg>
