<svg xmlns="http://www.w3.org/2000/svg" width="24" height="24" fill="none">
  <g clip-path="url(#a)">
    <path fill="#0F1828" d="M12 5c-1.3845 0-2.73784.41054-3.88899 1.17971-1.15114.76917-2.04835 1.86242-2.57816 3.14151-.52982 1.27908-.66844 2.68658-.39834 4.04438.27009 1.3579.93678 2.6052 1.91575 3.5841.97896.979 2.22624 1.6457 3.58414 1.9158 1.3578.2701 2.7653.1315 4.0444-.3983 1.2791-.5299 2.3723-1.4271 3.1415-2.5782C18.5895 14.7378 19 13.3845 19 12c-.002-1.8559-.7401-3.63521-2.0525-4.94753C15.6352 5.74015 13.8559 5.00201 12 5Zm0 12.8333c-1.1537 0-2.28154-.3421-3.24082-.9831-.95929-.6409-1.70696-1.552-2.14847-2.6179-.44152-1.0659-.55703-2.2388-.33195-3.3703.22508-1.13158.78065-2.17098 1.59645-2.98679.81581-.81581 1.85521-1.37138 2.98679-1.59646 1.1315-.22508 2.3044-.10956 3.3703.33195s1.977 1.18919 2.6179 2.14847c.641.95929.9831 2.08713.9831 3.24083-.0017 1.5466-.6168 3.0293-1.7104 4.1229-1.0936 1.0936-2.5763 1.7087-4.1229 1.7104ZM14.9167 12c0 .1547-.0615.3031-.1709.4125s-.2578.1708-.4125.1708h-1.75v1.75c0 .1547-.0614.3031-.1708.4125s-.2578.1709-.4125.1709-.3031-.0615-.4125-.1709-.1708-.2578-.1708-.4125v-1.75H9.66667c-.15471 0-.30308-.0614-.41248-.1708s-.17085-.2578-.17085-.4125.06145-.3031.17085-.4125.25777-.1708.41248-.1708h1.75003V9.66667c0-.15471.0614-.30309.1708-.41248.1094-.1094.2578-.17086.4125-.17086s.3031.06146.4125.17086c.1094.10939.1708.25777.1708.41248v1.75003h1.75c.1547 0 .3031.0614.4125.1708s.1709.2578.1709.4125Z"/>
  </g>
  <defs>
    <clipPath id="a">
      <path fill="#fff" d="M5 5h14v14H5z"/>
    </clipPath>
  </defs>
</svg>
