<svg xmlns="http://www.w3.org/2000/svg" width="24" height="24" fill="none">
  <path fill="#0F1828" d="M18.8216 10.5843c-.1134-.1095-.2673-.171-.4278-.171-.1604 0-.3143.0615-.4278.171l-6.5906 6.3911c-.2809.2713-.6144.4865-.9815.6333-.3671.1469-.76053.2225-1.15786.2225-.80244 0-1.57204-.3077-2.1395-.8555-.56745-.5479-.88628-1.2909-.88633-2.0657-.00006-.7748.31866-1.5179.88603-2.0658l6.38306-6.18834c.3413-.32432.8016-.50527 1.2804-.50344.4789.00183.9376.18629 1.2763.5132.3386.32692.5298.7698.5318 1.23218.002.46238-.1853.90679-.5211 1.23643L9.66363 15.3226c-.11512.1064-.26838.1659-.4278.1659s-.31268-.0595-.4278-.1659c-.11343-.1096-.17716-.2582-.17716-.4131 0-.1549.06373-.3035.17716-.4131L14.491 8.98408c.1102-.11019.1712-.25777.1698-.41096-.0013-.15319-.065-.29972-.1772-.40805-.1121-.10832-.2639-.16976-.4226-.1711-.1586-.00133-.3115.05756-.4256.16399L7.95244 13.6703c-.1686.1628-.30234.356-.39358.5687-.09125.2126-.13821.4406-.13821.6708 0 .2302.04696.4581.13821.6708.09124.2127.22498.4059.39358.5687.34588.3187.8056.4965 1.28369.4965s.93777-.1778 1.28367-.4965l6.3825-6.18895c.5555-.55018.8641-1.28951.859-2.05784-.0051-.76833-.3235-1.50379-.8863-2.04705-.5627-.54326-1.3244-.85059-2.1202-.8554-.7957-.00482-1.5614.29327-2.1311.82968L6.24065 12.0181C5.44627 12.7851 5 13.8254 5 14.9101s.44627 2.125 1.24065 2.892C7.03502 18.5691 8.11242 19 9.23583 19c1.12337 0 2.20077-.4309 2.99517-1.1979l6.5906-6.3893c.0566-.0543.1014-.1189.132-.1899.0306-.0711.0464-.1474.0464-.2243 0-.077-.0158-.1533-.0464-.2243-.0306-.0711-.0754-.1357-.132-.19Z"/>
</svg>
