<svg xmlns="http://www.w3.org/2000/svg" width="24" height="24" fill="none">
  <g fill="#0F1828" clip-path="url(#a)">
    <path d="M17.2503 7.33333H15.442c-.1354-.65834-.4936-1.24988-1.0143-1.67491-.5206-.42503-1.1719-.65757-1.844-.65842H11.417c-.6721.00085-1.3234.23339-1.84407.65842-.52067.42503-.87888 1.01657-1.01427 1.67491H6.75033c-.15471 0-.30309.06146-.41248.17086-.1094.10939-.17086.25777-.17086.41248 0 .15471.06146.30308.17086.41248.10939.10939.25777.17085.41248.17085h.58333v7.5833c.00093.7733.30851 1.5146.85529 2.0614s1.28811.8544 2.06135.8553h3.5c.7733-.0009 1.5146-.3085 2.0614-.8553s.8544-1.2881.8553-2.0614V8.5h.5833c.1547 0 .3031-.06146.4125-.17085.1094-.1094.1709-.25777.1709-.41248 0-.15471-.0615-.30309-.1709-.41248-.1094-.1094-.2578-.17086-.4125-.17086ZM11.417 6.16667h1.1667c.3618.00044.7146.1128 1.0101.32167.2954.20887.519.50403.6401.84499H9.76674c.12109-.34096.34466-.63612.64016-.84499.2954-.20887.6483-.32123 1.0101-.32167Zm4.0833 9.91663c0 .4642-.1843.9093-.5125 1.2375-.3282.3282-.7733.5125-1.2375.5125h-3.5c-.4641 0-.90922-.1843-1.23741-.5125-.32819-.3282-.51256-.7733-.51256-1.2375V8.5h6.99997v7.5833Z"/>
    <path d="M10.8333 15.4997c.1547 0 .3031-.0615.4125-.1709s.1709-.2578.1709-.4125v-3.5c0-.1547-.0615-.303-.1709-.4124s-.2578-.1709-.4125-.1709-.303.0615-.4124.1709-.1709.2577-.1709.4124v3.5c0 .1547.0615.3031.1709.4125s.2577.1709.4124.1709Zm2.333 0c.1548 0 .3031-.0615.4125-.1709s.1709-.2578.1709-.4125v-3.5c0-.1547-.0615-.303-.1709-.4124s-.2577-.1709-.4125-.1709c-.1547 0-.303.0615-.4124.1709s-.1709.2577-.1709.4124v3.5c0 .1547.0615.3031.1709.4125s.2577.1709.4124.1709Z"/>
  </g>
  <defs>
    <clipPath id="a">
      <path fill="#fff" d="M5 5h14v14H5z"/>
    </clipPath>
  </defs>
</svg>
