<svg xmlns="http://www.w3.org/2000/svg" width="24" height="24" fill="none">
  <g clip-path="url(#a)">
    <path fill="#0F1828" d="M19 14.3337v2.9167c0 .4641-.1844.9092-.5126 1.2374-.3282.3282-.7733.5126-1.2374.5126h-2.9167c-.8183-.0009-1.6221-.2169-2.3306-.6264-.7085-.4096-1.2969-.9982-1.706-1.707.4397-.0031.878-.0516 1.3078-.1446.3273.4093.7426.7396 1.215.9666.4723.227.9897.3448 1.5138.3447H17.25c.1547 0 .3031-.0615.4125-.1709s.1708-.2577.1708-.4124v-2.9167c-.0001-.5243-.1183-1.0418-.3457-1.5142a3.492683 3.492683 0 0 0-.9679-1.2146c.0938-.4298.1431-.868.147-1.3079.7087.4092 1.2973.9976 1.7069 1.7061.4095.7085.6256 1.5122.6264 2.3306Zm-3.5134-3.7036c.0545-.75153-.0533-1.50601-.3163-2.21216-.2629-.70616-.6748-1.34743-1.2076-1.88025-.5328-.53282-1.1741-.9447-1.8803-1.20765a5.24973 5.24973 0 0 0-2.21215-.31626c-1.3318.15209-2.56204.78585-3.45906 1.78193C5.51417 7.79179 5.01227 9.08146 5 10.4219v2.94c0 1.477.87908 2.1385 1.75 2.1385h3.325c1.341-.0116 2.6314-.5131 3.6282-1.4102.9968-.8971 1.6311-2.1277 1.7834-3.4601Zm-2.3491-3.26665c.4141.41504.7343.9142.9388 1.46369.2045.54949.2886 1.1365.2465 1.72126-.1245 1.0405-.625 1.9996-1.4074 2.6968-.7823.6971-1.7925 1.0843-2.8404 1.0885H6.75c-.54133 0-.58333-.7438-.58333-.9718v-2.94c.00486-1.04749.39237-2.05704 1.08961-2.83873.69724-.78168 1.65613-1.28158 2.69622-1.40564.0968-.007.1937-.0105.2905-.0105a4.0905 4.0905 0 0 1 1.5663.31019c.4967.20529.948.50643 1.3282.88623Z"/>
  </g>
  <defs>
    <clipPath id="a">
      <path fill="#fff" d="M5 5h14v14H5z"/>
    </clipPath>
  </defs>
</svg>
