<svg xmlns="http://www.w3.org/2000/svg" width="24" height="24" fill="none">
  <g clip-path="url(#a)">
    <path fill="#0F1828" d="M11.1249 14.9164c-.1534.0001-.3053-.03-.447-.0886-.1418-.0587-.2705-.1447-.379-.2532l-2.20732-2.1578c-.11062-.1083-.17369-.2561-.17533-.4109-.00164-.1547.05828-.3039.16658-.4145.10829-.1106.2561-.1737.41089-.1753.1548-.0016.30391.0583.41452.1666l2.21256 2.1624 3.9702-3.90834c.112-.09851.2574-.1504.4064-.14501.149.00539.2904.06765.3949.17399.1046.10634.1644.24866.1673.39776.0028.1491-.0515.2937-.1519.4039l-3.9626 3.9124c-.1079.1073-.2358.1923-.3766.25-.1407.0578-.2915.0872-.4436.0866Zm7.875 1.1667v-3.885c.0218-1.7982-.6375-3.53798-1.8455-4.87016-1.2079-1.33217-2.8751-2.15806-4.6668-2.31185-1.0001-.06996-2.0035.07569-2.94234.42709a7.000063 7.000063 0 0 0-2.49965 1.60977 6.999965 6.999965 0 0 0-1.60606 2.50203c-.35001.93942-.49417 1.94302-.42272 2.94292.25783 3.7065 3.53091 6.5019 7.61487 6.5019h3.4515c.7733-.001 1.5146-.3086 2.0614-.8553.5468-.5468.8544-1.2881.8553-2.0614Zm-6.5917-9.90267c1.4971.13244 2.8887.82653 3.895 1.94282 1.0064 1.11629 1.553 2.57205 1.53 4.07485v3.885c0 .4641-.1843.9092-.5125 1.2374-.3282.3282-.7733.5126-1.2375.5126h-3.4515c-3.51987 0-6.23179-2.275-6.45054-5.4157-.05743-.8.05073-1.6032.31773-2.3595a5.833232 5.833232 0 0 1 1.23404-2.03608A5.833258 5.833258 0 0 1 9.6777 6.6484c.7358-.31923 1.5295-.48331 2.3315-.48197.1325 0 .266.00525.399.014Z"/>
  </g>
  <defs>
    <clipPath id="a">
      <path fill="#fff" d="M5 5h14v14H5z"/>
    </clipPath>
  </defs>
</svg>
