<svg xmlns="http://www.w3.org/2000/svg" width="8" height="8" fill="none">
  <g clip-path="url(#a)">
    <path fill="#2cc069" d="M7.43922 1.477 2.83289 6.083a.333167.333167 0 0 1-.10831.0726.333372.333372 0 0 1-.12786.0255.333422.333422 0 0 1-.12787-.0255.333231.333231 0 0 1-.1083-.0726L.579219 4.3a.333295.333295 0 0 0-.108302-.07259.333221.333221 0 0 0-.127865-.0255.333225.333225 0 0 0-.127865.0255A.333295.333295 0 0 0 .106885 4.3a.333413.333413 0 0 0-.072596.1083.333348.333348 0 0 0 .072596.36404L1.88889 6.554c.18798.18764.44273.29302.70833.29302s.52035-.10538.70833-.29302l4.606-4.605a.333221.333221 0 0 0 .07248-.10824.333374.333374 0 0 0 0-.25551.33337.33337 0 0 0-.07248-.10825.333255.333255 0 0 0-.1083-.07259.333222.333222 0 0 0-.12786-.0255.333235.333235 0 0 0-.12787.0255.333255.333255 0 0 0-.1083.07259Z"/>
  </g>
  <defs>
    <clipPath id="a">
      <path fill="#2cc069" d="M0 0h8v8H0z"/>
    </clipPath>
  </defs>
</svg>
