<svg xmlns="http://www.w3.org/2000/svg" width="24" height="24" fill="none">
  <g clip-path="url(#a)">
    <path fill="#0F1828" d="M18.5744 10.494c-.5266-.86236-1.1909-1.63264-1.9664-2.28029l1.6333-1.63333c.1063-.11002.1651-.25737.1638-.41032-.0014-.15295-.0627-.29925-.1709-.40741-.1081-.10815-.2544-.1695-.4074-.17083-.1529-.00133-.3003.05747-.4103.16373l-1.7763 1.77858c-1.1011-.65402-2.3599-.9949-3.6405-.98583-3.61145 0-5.66945 2.47216-6.57479 3.9457-.27969.4523-.42784.9737-.42784 1.5055 0 .5319.14815 1.0533.42784 1.5056.52661.8624 1.19087 1.6326 1.96642 2.2803L5.758 17.4187a.583002.583002 0 0 0-.13073.1894c-.03057.0711-.04666.1477-.04734.2251a.58349.58349 0 0 0 .04342.226c.02933.0717.07265.1368.12742.1916.05477.0547.1199.0981.19159.1274.07169.0293.1485.0441.22595.0434a.585102.585102 0 0 0 .22517-.0473c.07117-.0306.13554-.075.18935-.1308l1.78033-1.7803c1.09974.6539 2.35704.9954 3.63654.9876 3.6114 0 5.6694-2.4722 6.5747-3.9457.2797-.4523.4279-.9737.4279-1.5056 0-.5318-.1482-1.0532-.4279-1.5055ZM6.41891 12.8944c-.16617-.2689-.25418-.5788-.25418-.8949 0-.316.08801-.6259.25418-.8948.77817-1.26349 2.53692-3.38974 5.58079-3.38974.9685-.00542 1.9234.22799 2.7801.67959L13.6056 9.5688c-.5601-.37182-1.2315-.53842-1.9004-.47154-.6689.06687-1.294.36312-1.76937.83845-.47534.47539-.77158 1.10049-.83846 1.76939-.06688.6689.09973 1.3403.47154 1.9004l-1.3475 1.3475a8.00675 8.00675 0 0 1-1.8025-2.0586Zm7.33079-.8949c0 .4642-.1844.9093-.5126 1.2375-.3282.3282-.7733.5125-1.2374.5125-.2599-.001-.5162-.0608-.7496-.175l2.3246-2.3245c.1141.2334.174.4897.175.7495Zm-3.5 0c0-.4641.1843-.9092.5125-1.2374.3282-.3282.7733-.5126 1.2375-.5126.2598.0011.5161.0609.7495.175l-2.3245 2.3246c-.1142-.2334-.174-.4897-.175-.7496Zm7.3307.8949c-.7782 1.2635-2.5369 3.3897-5.5807 3.3897-.9685.0055-1.9234-.228-2.7802-.6796l1.1742-1.1742c.5601.3718 1.2315.5384 1.9004.4715.6689-.0668 1.2941-.3631 1.7694-.8384.4753-.4754.7716-1.1005.8385-1.7694.0668-.6689-.0998-1.3403-.4716-1.9004l1.3475-1.34747c.7145.57766 1.3243 1.27407 1.8025 2.05857.1662.2689.2542.5788.2542.8948 0 .3161-.088.626-.2542.8949Z"/>
  </g>
  <defs>
    <clipPath id="a">
      <path fill="#fff" d="M5 5h14v14H5z"/>
    </clipPath>
  </defs>
</svg>
