<svg xmlns="http://www.w3.org/2000/svg" width="24" height="24" fill="none">
  <g clip-path="url(#a)">
    <path fill="#0F1828" d="M18.5744 10.4945c-.9047-1.47351-2.9627-3.94567-6.5747-3.94567-3.61204 0-5.67004 2.47216-6.57479 3.94567a2.863022 2.863022 0 0 0-.42784 1.5056c0 .5318.14815 1.0532.42784 1.5056.90475 1.4735 2.96275 3.9456 6.57479 3.9456 3.612 0 5.67-2.4721 6.5747-3.9456.2797-.4524.4279-.9738.4279-1.5056 0-.5319-.1482-1.0532-.4279-1.5056Zm-.9946 2.4004c-.777 1.2635-2.5357 3.3898-5.5801 3.3898-3.04445 0-4.8032-2.1263-5.5802-3.3898a1.70207 1.70207 0 0 1-.25419-.8948c0-.3161.08802-.626.25419-.8949.777-1.26346 2.53575-3.38971 5.5802-3.38971 3.0444 0 4.8031 2.12392 5.5801 3.38971.1662.2689.2542.5788.2542.8949 0 .3161-.088.6259-.2542.8948Z"/>
    <path fill="#1B2B48" d="M11.9997 9.08301c-.5769 0-1.1408.17106-1.6204.49154-.47968.32049-.85352.77605-1.07427 1.30895-.22076.533-.27852 1.1194-.16598 1.6852.11254.5658.39033 1.0855.79823 1.4934.40792.4079.92762.6857 1.49342.7982.5657.1125 1.1522.0548 1.6851-.166.533-.2207.9885-.5946 1.309-1.0742.3205-.4797.4915-1.0436.4915-1.6204-.0009-.7733-.3085-1.5146-.8553-2.0614-.5467-.54678-1.2881-.85437-2.0613-.85529Zm0 4.66669c-.3461 0-.6845-.1027-.9723-.295-.2878-.1922-.5121-.4656-.6445-.7853-.1325-.3198-.1671-.6717-.0996-1.0111.0675-.3395.2342-.6513.4789-.8961.2448-.2447.5566-.4114.8961-.4789.3394-.0675.6913-.0329 1.0111.0996.3197.1324.5931.3567.7853.6445.1923.2878.295.6262.295.9723 0 .4641-.1844.9092-.5126 1.2374-.3282.3282-.7733.5126-1.2374.5126Z"/>
  </g>
  <defs>
    <clipPath id="a">
      <path fill="#fff" d="M5 5h14v14H5z"/>
    </clipPath>
  </defs>
</svg>
