<svg xmlns="http://www.w3.org/2000/svg" width="24" height="24" fill="none">
  <g clip-path="url(#a)">
    <path fill="#0F1828" d="m16.6372 8.22935-2.0323-2.0335a4.058935 4.058935 0 0 0-1.324-.88699c-.4957-.20525-1.027-.31023-1.5635-.30885H9.08366c-.77326.00093-1.51459.30852-2.06137.8553-.54678.54678-.85437 1.28811-.8553 2.06137v8.16662c.00093.7733.30852 1.5146.8553 2.0614.54678.5468 1.28811.8544 2.06137.8553H14.917c.7733-.0009 1.5146-.3085 2.0614-.8553.5467-.5468.8543-1.2881.8553-2.0614v-4.967c.0014-.5365-.1036-1.0678-.309-1.56338-.2053-.49556-.507-.94543-.8875-1.32357Zm-.8248.82483c.1781.18325.3313.38919.4556.6125h-2.5177c-.1547 0-.3031-.06146-.4125-.17085-.1093-.1094-.1708-.25777-.1708-.41248V6.56568c.2234.12421.4295.27718.6131.455l2.0323 2.0335Zm.8546 7.02912c0 .4642-.1844.9093-.5126 1.2375-.3282.3282-.7733.5125-1.2374.5125H9.08366c-.46413 0-.90925-.1843-1.23744-.5125-.32819-.3282-.51256-.7733-.51256-1.2375V7.91668c0-.46413.18437-.90925.51256-1.23744.32819-.32819.77331-.51256 1.23744-.51256h2.63374c.0957 0 .1884.01867.2829.02742v2.88925c0 .46413.1844.90924.5126 1.23745.3282.3282.7733.5125 1.2374.5125h2.8893c.0087.0945.0274.1867.0274.283v4.967Z"/>
  </g>
  <defs>
    <clipPath id="a">
      <path fill="#fff" d="M5 5h14v14H5z"/>
    </clipPath>
  </defs>
</svg>
