<svg xmlns="http://www.w3.org/2000/svg" width="24" height="24" fill="none">
  <g fill="#0F1828" clip-path="url(#a)">
    <path d="M12.0003 8.5c-.4615 0-.9126.13685-1.2963.39324-.3837.25639-.6828.6208-.85939 1.04717a2.333184 2.333184 0 0 0-.13278 1.34809c.09003.4527.31227.8684.63857 1.1947.3263.3264.7421.5486 1.1947.6386.4526.0901.9218.0439 1.3482-.1327.4263-.1767.7907-.4757 1.0471-.8594.2564-.3838.3933-.8349.3933-1.2964 0-.6188-.2459-1.2123-.6835-1.64988-.4375-.43759-1.031-.68342-1.6499-.68342Zm0 3.5c-.2307 0-.4563-.0684-.6481-.1966a1.166355 1.166355 0 0 1-.4297-.5236 1.16695 1.16695 0 0 1-.0664-.6741c.045-.2263.1561-.4342.3193-.5973.1631-.16319.371-.2743.5973-.31932.2263-.04501.4609-.02191.6741.06639.2132.08831.3954.23784.5236.42973.1282.1918.1966.4174.1966.6481 0 .3095-.1229.6062-.3417.825s-.5156.3417-.825.3417Z"/>
    <path d="M12.0002 19.0002c-.4912.0025-.9759-.1127-1.4134-.336-.4375-.2233-.81519-.5481-1.10137-.9473-2.22308-3.0666-3.35066-5.372-3.35066-6.8525 0-1.55556.61796-3.04746 1.71794-4.14744 1.09998-1.09997 2.59189-1.71794 4.14749-1.71794 1.5556 0 3.0475.61797 4.1475 1.71794 1.0999 1.09998 1.7179 2.59188 1.7179 4.14744 0 1.4805-1.1276 3.7859-3.3507 6.8525-.2861.3992-.6638.724-1.1013.9473-.4376.2233-.9222.3385-1.4134.336Zm0-12.72776c-1.2178.00139-2.38526.48576-3.24634 1.34684-.86109.86109-1.34545 2.02857-1.34684 3.24632 0 1.1725 1.10425 3.3408 3.10858 6.1052.1702.2343.3934.4251.6514.5566.258.1316.5436.2001.8332.2001.2896 0 .5751-.0685.8332-.2001.258-.1315.4812-.3223.6514-.5566 2.0043-2.7644 3.1086-4.9327 3.1086-6.1052-.0014-1.21775-.4858-2.38523-1.3469-3.24632-.8611-.86108-2.0286-1.34545-3.2463-1.34684Z"/>
  </g>
  <defs>
    <clipPath id="a">
      <path fill="#fff" d="M5 5h14v14H5z"/>
    </clipPath>
  </defs>
</svg>
