<svg xmlns="http://www.w3.org/2000/svg" width="24" height="24" fill="none">
  <g fill="#0F1828" clip-path="url(#a)">
    <path d="M16.0833 5H7.91667c-.77327.00093-1.51459.30851-2.06138.85529C5.30851 6.40208 5.00093 7.1434 5 7.91667v8.16663c.00093.7733.30851 1.5146.85529 2.0614.54679.5468 1.28811.8544 2.06138.8553h8.16663c.7733-.0009 1.5146-.3085 2.0614-.8553s.8544-1.2881.8553-2.0614V7.91667c-.0009-.77327-.3085-1.51459-.8553-2.06138-.5468-.54678-1.2881-.85436-2.0614-.85529ZM7.91667 6.16667h8.16663c.4642 0 .9093.18437 1.2375.51256.3282.32819.5125.77331.5125 1.23744v8.16663c-.001.2599-.0608.5162-.175.7496l-5.3451-5.3451c-.2708-.2709-.5924-.4858-.9463-.6324-.3539-.1466-.7332-.2221-1.1163-.2221-.3831 0-.76244.0755-1.11635.2221a2.91632 2.91632 0 0 0-.94633.6324l-2.02125 2.0207V7.91667c0-.46413.18437-.90925.51256-1.23744.32819-.32819.77331-.51256 1.23744-.51256Zm0 11.66663c-.46413 0-.90925-.1843-1.23744-.5125-.32819-.3282-.51256-.7733-.51256-1.2375v-.9251l2.8455-2.8455c.16251-.1627.35548-.2917.56787-.3797.2124-.088.44006-.1333.66996-.1333s.4576.0453.67.1333c.2123.088.4053.217.5678.3797l5.3451 5.3456c-.2334.1142-.4897.174-.7496.175H7.91667Z"/>
    <path d="M14.3337 11.1244c.4038 0 .7985-.1198 1.1342-.3441.3358-.2244.5975-.5432.752-.9163.1545-.37307.195-.78358.1162-1.17963-.0788-.39604-.2732-.75983-.5588-1.04536-.2855-.28554-.6493-.47999-1.0453-.55876a2.041888 2.041888 0 0 0-1.1797.11618c-.373.15453-.6919.41621-.9162.75196-.2244.33575-.3441.73049-.3441 1.13429 0 .54149.2151 1.06082.598 1.44372.3829.3828.9022.598 1.4437.598Zm0-2.91672c.173 0 .3422.05132.4861.14747.1439.09614.256.2328.3223.39269a.87486.87486 0 0 1 .0497.50555c-.0337.16973-.1171.32564-.2394.44801-.1224.12237-.2783.20571-.448.23947a.87519.87519 0 0 1-.5056-.04979c-.1599-.06623-.2965-.17838-.3927-.32227a.87534.87534 0 0 1-.1474-.48613c0-.23206.0921-.45462.2562-.61872.1641-.16409.3867-.25628.6188-.25628Z"/>
  </g>
  <defs>
    <clipPath id="a">
      <path fill="#fff" d="M5 5h14v14H5z"/>
    </clipPath>
  </defs>
</svg>
