<svg xmlns="http://www.w3.org/2000/svg" width="24" height="24" fill="none">
  <g fill="#0F1828" clip-path="url(#a)">
    <path d="M11.9997 16.6667c1.2372-.0014 2.4234-.4935 3.2983-1.3684.8748-.8749 1.367-2.061 1.3683-3.2983V9.66667c0-1.23768-.4916-2.42467-1.3668-3.29983C14.4243 5.49167 13.2374 5 11.9997 5c-1.2377 0-2.42469.49167-3.29986 1.36684-.87517.87516-1.36683 2.06215-1.36683 3.29983V12c.00139 1.2373.4935 2.4234 1.36837 3.2983.87487.8749 2.06102 1.367 3.29832 1.3684Zm0-10.50003c.8263.00153 1.6255.29509 2.2563.8288.6309.5337 1.0528 1.27321 1.1912 2.08786h-1.6975c-.1547 0-.3031.06146-.4125.17086-.1094.10939-.1709.25777-.1709.41248 0 .15471.0615.30308.1709.41243.1094.1094.2578.1709.4125.1709h1.75v1.1667h-1.75c-.1547 0-.3031.0614-.4125.1708s-.1709.2578-.1709.4125.0615.3031.1709.4125.2578.1708.4125.1708h1.6975c-.1371.8152-.5587 1.5555-1.1898 2.0893-.6312.5339-1.4311.8268-2.2577.8268-.8267 0-1.6266-.2929-2.25773-.8268-.63115-.5338-1.05269-1.2741-1.1898-2.0893h1.69753c.1547 0 .3031-.0614.4125-.1708.1093-.1094.1708-.2578.1708-.4125s-.0615-.3031-.1708-.4125c-.1094-.1094-.2578-.1708-.4125-.1708H8.49967V10.25h1.75003c.1547 0 .3031-.0615.4125-.1709.1093-.10935.1708-.25772.1708-.41243 0-.15471-.0615-.30309-.1708-.41248-.1094-.1094-.2578-.17086-.4125-.17086H8.55217c.13841-.81465.56031-1.55416 1.19115-2.08786.63088-.53371 1.43008-.82727 2.25638-.8288Z"/>
    <path d="M18.4167 12c-.1547 0-.3031.0615-.4125.1709s-.1709.2577-.1709.4124c-.0015 1.3919-.5551 2.7264-1.5394 3.7106-.9842.9843-2.3187 1.5379-3.7106 1.5394h-1.1666c-1.3919-.0017-2.72627-.5553-3.71047-1.5395-.9842-.9842-1.53787-2.3186-1.53956-3.7105 0-.1547-.06146-.303-.17086-.4124C5.88642 12.0615 5.73804 12 5.58333 12c-.15471 0-.30308.0615-.41248.1709-.10939.1094-.17085.2577-.17085.4124.00201 1.7012.67869 3.3322 1.88161 4.5351C8.08454 18.3213 9.71548 18.998 11.4167 19h1.1666c1.7012-.002 3.3322-.6787 4.5351-1.8816S18.998 14.2845 19 12.5833c0-.1547-.0615-.303-.1709-.4124S18.5714 12 18.4167 12Z"/>
  </g>
  <defs>
    <clipPath id="a">
      <path fill="#fff" d="M5 5h14v14H5z"/>
    </clipPath>
  </defs>
</svg>
