<svg xmlns="http://www.w3.org/2000/svg" width="24" height="24" fill="none">
  <g clip-path="url(#a)">
    <path fill="#0F1828" d="M14.9167 19c-.1547 0-.3031-.0615-.4125-.1709-.1094-.1093-.1709-.2577-.1709-.4124 0-1.083-.4302-2.1216-1.1959-2.8874-.7658-.7658-1.8044-1.196-2.8874-1.196-1.08297 0-2.12158.4302-2.88735 1.196-.76578.7658-1.19598 1.8044-1.19598 2.8874 0 .1547-.06146.3031-.17086.4124-.10939.1094-.25777.1709-.41248.1709-.15471 0-.30308-.0615-.41248-.1709C5.06146 18.7198 5 18.5714 5 18.4167c0-1.3924.55312-2.7278 1.53769-3.7123.98457-.9846 2.31992-1.5377 3.71231-1.5377 1.3924 0 2.7277.5531 3.7123 1.5377.9846.9845 1.5377 2.3199 1.5377 3.7123 0 .1547-.0615.3031-.1709.4124-.1094.1094-.2577.1709-.4124.1709Zm3.5-6.4167h-3.5c-.1547 0-.3031-.0614-.4125-.1708s-.1709-.2578-.1709-.4125.0615-.3031.1709-.4125.2578-.1708.4125-.1708h3.5c.1547 0 .303.0614.4124.1708S19 11.8453 19 12s-.0615.3031-.1709.4125-.2577.1708-.4124.1708ZM10.25 12c-.69223 0-1.36892-.2053-1.9445-.5899-.57557-.3845-1.02417-.9312-1.28908-1.57071-.26491-.63954-.33422-1.34327-.19917-2.0222.13505-.67894.46839-1.30258.95788-1.79206.48948-.48949 1.11312-.82283 1.79205-.95788.67892-.13505 1.38272-.06573 2.02222.19917.6395.26491 1.1862.71351 1.5707 1.28909.3846.57557.5899 1.25226.5899 1.94449-.0009.92798-.37 1.8177-1.0261 2.4739C12.0677 11.63 11.178 11.9991 10.25 12Zm0-5.83333c-.46149 0-.91262.13685-1.29633.39324a2.333323 2.333323 0 0 0-.85939 1.04716 2.333402 2.333402 0 0 0-.13278 1.34814c.09003.45263.31226.86839.63858 1.19469.32633.3263.74209.5486 1.19471.6386.45261.09.92181.0438 1.34811-.1328.4264-.1766.7908-.4757 1.0472-.85937.2564-.38371.3932-.83484.3932-1.29633 0-.61884-.2458-1.21233-.6834-1.64991-.4376-.43759-1.0311-.68342-1.6499-.68342Z"/>
  </g>
  <defs>
    <clipPath id="a">
      <path fill="#fff" d="M5 5h14v14H5z"/>
    </clipPath>
  </defs>
</svg>
