<svg xmlns="http://www.w3.org/2000/svg" width="24" height="24" fill="none">
  <path fill="#0F1828" d="M9.99961 2.5c1.39799-.00006 2.76819.39061 3.95589 1.12792s2.1457 1.79191 2.7659 3.04478c.6202 1.25288.8779 2.65416.744 4.0457-.1339 1.3916-.6541 2.718-1.5018 3.8296l4.743 4.745c.1794.18.2835.4214.2912.6754.0078.2539-.0814.5013-.2494.6919-.1681.1905-.4023.31-.6553.3341-.2529.0241-.5055-.049-.7065-.2044l-.094-.083-4.745-4.743a7.49994 7.49994 0 0 1-3.2246 1.4184c-1.1722.2101-2.37757.138-3.51639-.2103-1.13883-.3483-2.17835-.9627-3.03255-1.7926-.8542-.8298-1.49851-1.851-1.87963-2.9793-.38111-1.1283-.48807-2.3311-.31203-3.50889a7.499875 7.499875 0 0 1 1.3244-3.26428 7.49998 7.49998 0 0 1 2.66865-2.29954A7.499971 7.499971 0 0 1 9.99961 2.5Zm0 2c-1.4587 0-2.85764.57946-3.88909 1.61091S4.49961 8.54131 4.49961 10c0 1.4587.57946 2.8576 1.61091 3.8891C7.14197 14.9205 8.54091 15.5 9.99961 15.5c1.45869 0 2.85759-.5795 3.88909-1.6109 1.0314-1.0315 1.6109-2.4304 1.6109-3.8891 0-1.45869-.5795-2.85764-1.6109-3.88909C12.8572 5.07946 11.4583 4.5 9.99961 4.5Z"/>
</svg>
