<svg xmlns="http://www.w3.org/2000/svg" width="24" height="24" fill="none">
  <path fill="#002DE3" d="M20.7823 3.21745c-.1013-.10075-.2291-.1705-.3686-.20106-.1395-.03055-.2849-.02065-.4189.02856l-16.50004 6a.750037.750037 0 0 0-.35127.27521.750047.750047 0 0 0-.13275.42604c0 .15219.0463.3008.13275.426.08646.1253.20897.2213.35127.2752l6.4425 2.5725 4.75504-4.76995 1.0575 1.0575-4.7775 4.77745 2.58 6.4426c.0555.1395.1517.2591.2761.3434.1244.0842.2711.1292.4214.129.1515-.0031.2986-.052.4218-.1404.1231-.0884.2166-.212.2682-.3546l6-16.49995a.74985.74985 0 0 0 .0355-.41661c-.0279-.13943-.0948-.26806-.193-.37089Z"/>
</svg>
