<svg xmlns="http://www.w3.org/2000/svg" width="24" height="24" fill="none">
  <g fill="#0F1828" clip-path="url(#a)">
    <path d="M12.002 4.99902c-3.87192 0-7.01079 3.13887-7.01079 7.01088 0 3.8719 3.13887 7.0108 7.01079 7.0108 3.872 0 7.0108-3.1389 7.0108-7.0108 0-3.87201-3.1388-7.01088-7.0108-7.01088Zm4.3451 5.15678.4527-1.46357c.61.88416.9624 1.92037 1.0179 2.99307l-1.2495-.8802c-.2066-.1457-.2958-.4078-.2211-.6493Zm-2.8303-3.78292h-.0047l-1.1667.84933c-.2045.14867-.4814.14867-.686 0l-1.1666-.84933c.9893-.27453 2.0347-.27453 3.024 0ZM7.20045 8.69281l.45268 1.46299c.07475.2415-.01452.5036-.22108.6493l-1.2495.8802c.05554-1.0725.40794-2.10855 1.0179-2.99249Zm.1371 6.79819 1.60243.0052c.25295.0006.47676.164.55417.4049l.504 1.5709c-1.05938-.3899-1.98338-1.0779-2.6606-1.981Zm6.66515 1.981.5034-1.5709c.0774-.2407.3009-.4041.5536-.4049l1.603-.0052c-.6769.9032-1.6007 1.5912-2.66 1.981Zm3.346-3.15-2.2925.0076c-.759.0009-1.4304.4924-1.6608 1.2156l-.7204 2.2459c-.4481.0568-.9017.0568-1.3498 0l-.7204-2.2465c-.2306-.7232-.90226-1.2144-1.66135-1.215l-2.29193-.007a5.784224 5.784224 0 0 1-.38442-1.2694l1.83692-1.2944c.62093-.4358.88925-1.2228.66383-1.94717l-.66208-2.142a5.829337 5.829337 0 0 1 1.099-.78692l1.76633 1.28332c.6131.44729 1.4449.44729 2.058 0l1.7663-1.28332c.3955.21894.7643.483 1.099.78692l-.6621 2.142c-.2253.72437.0429 1.51137.6639 1.94717l1.8369 1.2944c-.079.4363-.208.862-.3844 1.2688Z"/>
    <path d="m13.9749 10.3806-1.1183-.81197c-.5105-.37276-1.2034-.37276-1.7138 0l-1.1183.81197c-.51341.371-.72765 1.0317-.52965 1.6334l.427 1.3142c.19515.6004.75525 1.0064 1.38655 1.0051h1.3825c.632 0 1.1921-.4069 1.3872-1.008l.4264-1.3143c.1968-.6008-.0173-1.2599-.5296-1.6304Zm-.5799 1.2699-.4264 1.3143c-.039.1204-.1512.2019-.2777.2018h-1.3825c-.1263-.0002-.2382-.0816-.2771-.2018l-.427-1.3148c-.0392-.1204.0037-.2524.1062-.3267l1.1177-.8108c.1023-.0744.2408-.0744.343 0l1.1183.812c.102.0743.1446.2059.1055.326Z"/>
  </g>
  <defs>
    <clipPath id="a">
      <path fill="#fff" d="M5 5h14v14H5z"/>
    </clipPath>
  </defs>
</svg>
