<svg xmlns="http://www.w3.org/2000/svg" width="36" height="36" fill="none">
  <g fill="#0F1828" clip-path="url(#a)">
    <path d="M34.5 24c-.3978 0-.7794.158-1.0607.4393S33 25.1022 33 25.5v3c0 1.1935-.4741 2.3381-1.318 3.182C30.8381 32.5259 29.6935 33 28.5 33h-3c-.3978 0-.7794.158-1.0607.4393S24 34.1022 24 34.5c0 .3978.158.7793.4393 1.0606S25.1022 36 25.5 36h3c1.9884-.0024 3.8946-.7933 5.3007-2.1993C35.2067 32.3946 35.9976 30.4884 36 28.5v-3c0-.3978-.1581-.7794-.4394-1.0607S34.8978 24 34.5 24Zm-33-12c.39782 0 .77936-.158 1.06066-.4393C2.84196 11.2794 3 10.8978 3 10.5v-3c0-1.19347.47411-2.33807 1.31802-3.18198C5.16193 3.47411 6.30653 3 7.5 3h3c.3978 0 .7794-.15804 1.0607-.43934S12 1.89782 12 1.5c0-.39782-.158-.779356-.4393-1.06066C11.2794.158035 10.8978 0 10.5 0h-3C5.51161.002382 3.60534.793323 2.19933 2.19933.793323 3.60534.002382 5.51161 0 7.5v3c0 .3978.158035.7794.43934 1.0607C.720644 11.842 1.10218 12 1.5 12Zm9 21h-3c-1.19347 0-2.33807-.4741-3.18198-1.318C3.47411 30.8381 3 29.6935 3 28.5v-3c0-.3978-.15804-.7794-.43934-1.0607S1.89782 24 1.5 24c-.39782 0-.779356.158-1.06066.4393C.158035 24.7206 0 25.1022 0 25.5v3c.002382 1.9884.793323 3.8946 2.19933 5.3007C3.60534 35.2067 5.51161 35.9976 7.5 36h3c.3978 0 .7794-.1581 1.0607-.4394S12 34.8978 12 34.5c0-.3978-.158-.7794-.4393-1.0607S10.8978 33 10.5 33Zm18-33h-3c-.3978 0-.7794.158035-1.0607.43934C24.158.720644 24 1.10218 24 1.5c0 .39782.158.77936.4393 1.06066C24.7206 2.84196 25.1022 3 25.5 3h3c1.1935 0 2.3381.47411 3.182 1.31802C32.5259 5.16193 33 6.30653 33 7.5v3c0 .3978.158.7794.4393 1.0607S34.1022 12 34.5 12c.3978 0 .7793-.158 1.0606-.4393S36 10.8978 36 10.5v-3c-.0024-1.98839-.7933-3.89466-2.1993-5.30067C32.3946.793323 30.4884.002382 28.5 0ZM18 16.5c1.1867 0 2.3467-.3519 3.3334-1.0112.9867-.6593 1.7558-1.5963 2.2099-2.6927.4541-1.0964.5729-2.3028.3414-3.46664-.2315-1.16389-.8029-2.23298-1.6421-3.0721-.8391-.83911-1.9082-1.41056-3.0721-1.64207-1.1638-.23151-2.3702-.11269-3.4666.34144-1.0964.45412-2.0334 1.22316-2.6927 2.20985C12.3519 8.15328 12 9.31331 12 10.5c0 1.5913.6321 3.1174 1.7574 4.2426C14.8826 15.8679 16.4087 16.5 18 16.5Zm0-9c.5933 0 1.1734.17595 1.6667.50559.4934.32965.8779.79818 1.1049 1.34636.2271.54818.2865 1.15135.1708 1.73335-.1158.5819-.4015 1.1165-.8211 1.536-.4195.4196-.9541.7053-1.536.8211-.582.1157-1.1852.0563-1.7333-.1708-.5482-.227-1.0168-.6115-1.3464-1.1049C15.1759 11.6734 15 11.0933 15 10.5c0-.79565.3161-1.55871.8787-2.12132C16.4413 7.81607 17.2044 7.5 18 7.5ZM27 30c.3978 0 .7794-.158 1.0607-.4393S28.5 28.8978 28.5 28.5c-.0024-2.3862-.9514-4.674-2.6387-6.3613C24.174 20.4514 21.8862 19.5024 19.5 19.5h-3c-2.3862.0024-4.674.9514-6.3613 2.6387C8.45136 23.826 7.50238 26.1138 7.5 28.5c0 .3978.15804.7794.43934 1.0607S8.60218 30 9 30c.39782 0 .77936-.158 1.0607-.4393.2813-.2813.4393-.6629.4393-1.0607 0-1.5913.6321-3.1174 1.7574-4.2426C13.3826 23.1321 14.9087 22.5 16.5 22.5h3c1.5913 0 3.1174.6321 4.2426 1.7574C24.8679 25.3826 25.5 26.9087 25.5 28.5c0 .3978.158.7794.4393 1.0607S26.6022 30 27 30Z"/>
  </g>
  <defs>
    <clipPath id="a">
      <path fill="#fff" d="M0 0h36v36H0z"/>
    </clipPath>
  </defs>
</svg>
