<svg xmlns="http://www.w3.org/2000/svg" width="36" height="36" fill="none">
  <path fill="#0F1828" fill-rule="evenodd" d="M9.99994 7.75839C10.74 7.26392 11.61 7 12.5 7c.5714 0 1.0346.46322 1.0346 1.03464S13.0714 9.06928 12.5 9.06928c-.4807 0-.9507.14256-1.3504.40965-.3998.26709-.7113.64667-.8953 1.09087-.184.4442-.2321.9329-.1383 1.4044.0938.4715.3253.9046.6652 1.2446.34.3399.7731.5714 1.2446.6652.4715.0938.9602.0457 1.4044-.1383.4442-.184.8238-.4955 1.0909-.8953.2671-.3997.4096-.8697.4096-1.3504 0-.5714.4632-1.0346 1.0347-1.0346.5714 0 1.0346.4632 1.0346 1.0346 0 .89-.2639 1.76-.7584 2.5001-.4945.74-1.1973 1.3168-2.0195 1.6574-.8223.3405-1.7271.4297-2.6.256-.8729-.1736-1.67474-.6022-2.30408-1.2315-.62934-.6294-1.05792-1.4312-1.23155-2.3041-.17364-.8729-.08452-1.7777.25607-2.59998.3406-.82226.91737-1.52507 1.6574-2.01953ZM34.9802 13C35.5434 13 36 13.4661 36 14.041v8.7164c0 4.459-.8625 7.8511-3.0561 10.103C30.7489 35.1136 27.4407 36 23.094 36H12.906c-4.34537 0-7.65342-.886-9.84877-3.139C.863226 30.6094 0 27.2173 0 22.7574v-3.5046c0-.5749.456559-1.041 1.01975-1.041.5632 0 1.01976.4661 1.01976 1.041v3.5046c0 4.2566.83636 6.9653 2.4637 8.6354 1.62601 1.6687 4.26108 2.5253 8.40279 2.5253h10.188c4.1431 0 6.7781-.857 8.4037-2.5258 1.6271-1.6702 2.4628-4.3789 2.4628-8.6349V14.041c0-.5749.4566-1.041 1.0197-1.041Z" clip-rule="evenodd"/>
  <path fill="#0F1828" fill-rule="evenodd" d="M3.09967 3.07527C5.32422.868234 8.6763 0 13.0827 0h6.8889C20.5396 0 21 .456808 21 1.02031c0 .5635-.4604 1.02031-1.0284 1.02031h-6.8889c-4.20346 0-6.87851.84044-8.52865 2.47759-1.65013 1.63714-2.49724 4.29114-2.49724 8.46149 0 .5635-.46043 1.0203-1.02841 1.0203C.460432 14 0 13.5432 0 12.9797c0-4.37169.875122-7.69739 3.09967-9.90443ZM23 6c0-.55228.4792-1 1.0704-1h9.8592C34.5208 5 35 5.44772 35 6s-.4792 1-1.0704 1h-9.8592C23.4792 7 23 6.55228 23 6Z" clip-rule="evenodd"/>
  <path fill="#0F1828" fill-rule="evenodd" d="M29 0c.5523 0 1 .479239 1 1.07041v9.85919C30 11.5208 29.5523 12 29 12s-1-.4792-1-1.0704V1.07041C28 .479239 28.4477 0 29 0Zm-.9504 19.675-7.0773 6.1264-.0188.0159c-.8604.7094-1.94 1.0972-3.0542 1.0972-1.1142 0-2.1938-.3878-3.0542-1.0972-.0093-.0077-.0184-.0155-.0274-.0234l-.5464-.4838c-.4574-.3691-1.0194-.5848-1.6062-.6161-.5905-.0316-1.1757.1251-1.6717.4474l-8.39619 5.6827c-.46866.3172-1.10517.1936-1.4217-.276-.316522-.4697-.193195-1.1076.27546-1.4248l8.41717-5.6969c.86136-.563 1.87916-.8367 2.90596-.7819 1.0269.0549 2.0098.4357 2.8065 1.0873.0103.0084.0205.0171.0305.026l.548.4851c.4917.4005 1.1062.6193 1.7402.6193.6358 0 1.2519-.22 1.7443-.6226l7.0773-6.1265.0188-.0159c.8605-.7094 1.94-1.0972 3.0542-1.0972 1.1142 0 2.1938.3878 3.0542 1.0972l.0189.016 2.7784 2.4053c.428.3705.4752 1.0185.1055 1.4474-.3697.4288-1.0164.4762-1.4443.1057l-2.7684-2.3967c-.4924-.4026-1.1085-.6226-1.7443-.6226-.6357 0-1.2518.22-1.7443.6227Z" clip-rule="evenodd"/>
</svg>
