<svg width="262" height="271" viewBox="0 0 262 271" fill="none" xmlns="http://www.w3.org/2000/svg">
<rect x="3.89355" y="43" width="117.463" height="117.463" rx="58.7314" fill="#CDE1FD"/>
<g clip-path="url(#clip0_973_2018)">
<path d="M94.8321 71.6701L101.686 65.6162H94.695L94.8321 71.6701Z" fill="#002DE3"/>
<path d="M131.53 66.3018H97.4271C92.2088 66.3018 87.9785 62.0715 87.9785 56.8531V52.4487C87.9785 47.2303 92.2088 43 97.4271 43L131.53 43C136.748 43 140.979 47.2303 140.979 52.4487V56.8531C140.979 62.0715 136.748 66.3018 131.53 66.3018Z" fill="#002DE3"/>
<path d="M107.397 56.7068C106.262 56.7068 105.341 55.7863 105.341 54.6508C105.341 53.5152 106.262 52.5947 107.397 52.5947C108.533 52.5947 109.453 53.5152 109.453 54.6508C109.453 55.7863 108.533 56.7068 107.397 56.7068Z" fill="white"/>
<path d="M114.478 56.7068C113.343 56.7068 112.422 55.7863 112.422 54.6508C112.422 53.5152 113.343 52.5947 114.478 52.5947C115.614 52.5947 116.534 53.5152 116.534 54.6508C116.534 55.7863 115.614 56.7068 114.478 56.7068Z" fill="white"/>
<path d="M121.56 56.7068C120.425 56.7068 119.504 55.7863 119.504 54.6508C119.504 53.5152 120.425 52.5947 121.56 52.5947C122.696 52.5947 123.616 53.5152 123.616 54.6508C123.616 55.7863 122.696 56.7068 121.56 56.7068Z" fill="white"/>
</g>
<path d="M127.263 142.517L118.17 139.322L111.208 159.135L120.302 162.33L127.263 142.517Z" fill="#1F161E"/>
<path d="M132.979 238.212C133.371 238.829 135.457 242.541 136.614 242.921C138.707 243.602 149.546 239.693 149.838 239.177C150.131 238.66 149.965 237.806 149.353 237.732C148.742 237.659 143.904 238.391 143.12 238.286C142.335 238.18 140.521 236.914 140.309 236" fill="#1F161E"/>
<path d="M0.978516 181.244C0.978516 206.183 12.1726 211.42 23.308 211.42C51.5147 211.42 88.2114 195.385 90.2835 194.767C89.6319 197.39 85.5204 263.885 85.5204 264.268C86.4978 264.809 93.9909 265.275 96.5125 264.809C97.1641 263.192 116.979 184.103 116.979 182.02C116.979 179.937 115.271 176.769 108.814 176.312C106.084 176.118 68.1038 175 68.1038 175" fill="#1F161E"/>
<path d="M95.8659 164C104.364 172.746 142.313 233.799 141.976 235.226C141.64 236.653 132.915 239.678 131.07 238.863C123.245 235.434 75.1991 177.81 73.3285 176.94C71.4579 176.07 68.6553 176.406 66.9854 176.645C62.6423 171.513 72.3641 165.418 95.8659 164Z" fill="#0F1828"/>
<path d="M57.5023 94.2661C70.2797 94.2661 73.9537 106.365 75.0108 110.933C78.3912 125.518 68.9811 180.941 67.8913 182.468C58.6443 195.395 5.78609 196.544 0.630775 190.945C-4.52454 185.345 22.5898 94.2661 57.5023 94.2661Z" fill="#375FFF"/>
<path d="M86.9757 264C86.8043 264.63 85.5119 268.318 86.1581 269.039C87.3186 270.343 99.3919 271.242 100.051 270.942C100.711 270.642 101.258 269.908 100.823 269.639C100.388 269.37 95.8114 268.162 95.251 267.788C94.6905 267.415 94.2223 265.755 94.796 264.956" fill="#1F161E"/>
<path d="M55.5908 96.8175C55.2449 97.9269 64.2634 100.733 64.6093 99.6301L68.1071 88.4058L59.0951 85.5933L55.5908 96.8175Z" fill="#F8CDBA"/>
<path d="M64.5308 91.0618C63.6498 90.7877 57.2481 91.5251 56.8174 92.9086L59.0949 85.5933C60.4979 86.0305 64.5308 91.0618 64.5308 91.0618Z" fill="#1F161E"/>
<path d="M69.562 92.8632C76.8746 92.8632 82.8026 86.9351 82.8026 79.6225C82.8026 72.3099 76.8746 66.3818 69.562 66.3818C62.2493 66.3818 56.3213 72.3099 56.3213 79.6225C56.3213 86.9351 62.2493 92.8632 69.562 92.8632Z" fill="#F8CDBA"/>
<path d="M82.7686 86.5973C82.9672 85.9608 82.1353 85.135 80.9105 84.7528C79.6857 84.3706 78.5319 84.5768 78.3332 85.2133C78.1346 85.8497 78.9665 86.6755 80.1913 87.0577C81.4161 87.4399 82.57 87.2338 82.7686 86.5973Z" fill="#FA9E9F"/>
<path d="M68.8468 82.2565C69.0454 81.62 68.2135 80.7942 66.9887 80.412C65.7639 80.0298 64.61 80.236 64.4114 80.8724C64.2128 81.5089 65.0447 82.3347 66.2695 82.7169C67.4942 83.0991 68.6481 82.8929 68.8468 82.2565Z" fill="#FA9E9F"/>
<path d="M75.8984 81.8345C76.1268 82.5523 77.4842 85.6977 74.9326 86.0044" stroke="#0F1828" stroke-width="1.2" stroke-miterlimit="10" stroke-linecap="round"/>
<path d="M69.5549 87.5053C68.9023 87.2769 68.1192 86.1545 67.8125 85.2344" stroke="#0F1828" stroke-width="1.2" stroke-miterlimit="10" stroke-linecap="round"/>
<path d="M73.5687 62.251C70.0774 61.8137 59.943 58.7989 57.6394 56.7041C56.5496 57.2784 52.3144 61.0829 48.8623 66.2316L53.7632 71.1586L47.5703 68.3003C45.9382 70.9747 44.8164 73.9286 44.2617 77.0121C45.8605 81.3256 50.8788 83.1006 51.825 83.2181C57.9266 83.9881 60.2693 74.5062 63.3429 73.3316C68.5635 71.3282 74.7107 76.5292 82.4437 76.2029C84.1599 72.6986 81.9281 63.3016 73.5687 62.251Z" fill="#1F161E"/>
<path d="M57.4238 80.4903C59.1141 80.4903 60.4844 79.12 60.4844 77.4297C60.4844 75.7394 59.1141 74.3691 57.4238 74.3691C55.7335 74.3691 54.3633 75.7394 54.3633 77.4297C54.3633 79.12 55.7335 80.4903 57.4238 80.4903Z" fill="#F8CDBA"/>
<path d="M44.2613 125.302C43.6088 129.387 41.4944 167.961 46.5584 171.713C57.4041 179.746 107.489 169.918 115.078 167.106C115.901 164.417 115.078 155.875 115.078 155.875C112.155 155.758 75.2715 155.405 73.0724 152.612C70.8732 149.819 70.6122 126.986 70.9646 124.408" fill="#375FFF"/>
<path d="M120.181 168C124.099 168 127.275 164.824 127.275 160.906C127.275 156.989 124.099 153.813 120.181 153.813C116.264 153.813 113.088 156.989 113.088 160.906C113.088 164.824 116.264 168 120.181 168Z" fill="#F8CDBA"/>
<path d="M73.0659 152.632C70.8407 149.819 70.6057 127.005 70.9581 124.428" stroke="#0F1828" stroke-linecap="round" stroke-linejoin="round"/>
<path d="M69.601 174.611C59.3818 175.179 50.4481 174.611 46.5588 171.713C44.34 170.075 43.4982 161.768 43.2959 152.6" stroke="#0F1828" stroke-linecap="round" stroke-linejoin="round"/>
<g clip-path="url(#clip1_973_2018)">
<rect x="162" width="100" height="100" rx="50" fill="#CDE1FD"/>
<g clip-path="url(#clip2_973_2018)">
<path d="M176.095 56.6804C174.974 55.8937 170.219 50.113 169.658 48.1702C169.098 46.2273 168.676 38.9037 174.222 40.5683C179.768 42.233 177.264 48.1006 181.176 51.7994" fill="#F8CDBA"/>
<path d="M174.239 35.3284L169.222 39.3335L177.948 50.2644L182.965 46.2593L174.239 35.3284Z" fill="#1F161E"/>
<path d="M244.803 51.7993C246.168 53.0685 260.124 76.5737 260.124 79.5162C260.124 82.4588 256.903 100.305 255.052 104.112C253.2 107.92 244.803 51.7993 244.803 51.7993Z" fill="#1F161E"/>
<path d="M236.592 45.2578C256.681 45.2578 259.306 116.052 257.889 118.899C256.472 121.746 221.345 121.415 218.498 118.899C215.651 116.382 218.115 45.2578 236.592 45.2578Z" fill="#002DE3"/>
<path d="M232.98 47.6222C232.98 48.8827 239.935 48.9783 239.935 47.6222V39.1729H232.98V47.6222Z" fill="#F8CDBA"/>
<path d="M239.943 44.2105C239.943 43.4586 238.204 40.8638 236.9 41.3028C238.539 40.7247 239.347 38.7515 239.943 39.1557V44.2105Z" fill="#0F1828"/>
<path d="M233.372 42.0155C238.367 42.0155 242.417 37.9659 242.417 32.9706C242.417 27.9753 238.367 23.9258 233.372 23.9258C228.377 23.9258 224.327 27.9753 224.327 32.9706C224.327 37.9659 228.377 42.0155 233.372 42.0155Z" fill="#F8CDBA"/>
<path d="M224.227 34.9704C225.06 34.9704 225.735 34.6181 225.735 34.1837C225.735 33.7492 225.06 33.397 224.227 33.397C223.394 33.397 222.719 33.7492 222.719 34.1837C222.719 34.6181 223.394 34.9704 224.227 34.9704Z" fill="#FA9E9F"/>
<path d="M233.71 34.9704C234.543 34.9704 235.219 34.6181 235.219 34.1837C235.219 33.7492 234.543 33.397 233.71 33.397C232.877 33.397 232.202 33.7492 232.202 34.1837C232.202 34.6181 232.877 34.9704 233.71 34.9704Z" fill="#FA9E9F"/>
<path d="M227.9 32.5537C227.621 32.9579 226.161 34.6487 227.7 35.3311" stroke="#0F1828" stroke-width="0.69" stroke-miterlimit="10" stroke-linecap="round"/>
<path d="M230.751 37.3041C231.186 37.3041 231.903 36.7434 232.272 36.2349" stroke="#0F1828" stroke-width="0.69" stroke-miterlimit="10" stroke-linecap="round"/>
<path d="M242.017 27.6986C242.017 24.5605 237.64 22.2222 234.593 22.2222C229.742 22.2222 223.831 23.4044 222.858 23.7478C221.223 24.3171 220.945 26.06 220.945 26.6424C220.945 29.0851 221.815 30.6064 224.527 30.9888C224.712 30.1272 225.032 29.3 225.474 28.5375C226.225 28.249 227.053 28.2351 227.813 28.4984C228.499 28.7374 234.237 31.4409 238.483 31.4409C239.048 32.2362 240.291 37.0912 239.926 39.1514C241.169 39.2252 243.46 35.1788 243.577 33.0664C243.604 32.3415 243.46 31.6204 243.158 30.9608C242.856 30.3012 242.404 29.7214 241.838 29.2677C241.895 28.8113 242.017 27.9464 242.017 27.6986Z" fill="#0F1828"/>
<path d="M238.883 35.3919C239.983 35.3919 240.874 34.5007 240.874 33.4013C240.874 32.3019 239.983 31.4106 238.883 31.4106C237.784 31.4106 236.893 32.3019 236.893 33.4013C236.893 34.5007 237.784 35.3919 238.883 35.3919Z" fill="#F8CDBA"/>
<path d="M241.873 64.382C236.892 71.9925 209.962 83.9973 207.128 83.9973C199.613 83.9973 177.364 59.3054 176.095 56.6715C177.559 55.1068 180.68 51.7905 181.167 51.7905C181.654 51.7905 202.834 66.4292 206.837 66.4292C210.84 66.4292 229.812 53.0814 232.281 52.4816" fill="#002DE3"/>
<path d="M225.569 56.3024C228.851 54.264 231.463 52.6775 232.28 52.4819" stroke="#0F1828" stroke-linecap="round" stroke-linejoin="round"/>
<path d="M219.933 78.9206C228.625 74.7437 238.974 68.8239 241.873 64.3906" stroke="#0F1828" stroke-linecap="round" stroke-linejoin="round"/>
<path d="M218.528 89.6912C218.707 87.9918 227.512 75.07 229.212 74.0703C227.408 75.0743 220.58 78.5384 219.932 78.9209C219.554 79.9336 218.528 89.6912 218.528 89.6912Z" fill="#1F161E"/>
</g>
</g>
<g clip-path="url(#clip3_973_2018)">
<path d="M192.922 26.4247L186.845 21.0562H193.044L192.922 26.4247Z" fill="#375FFF"/>
<path d="M160.379 21.6636L190.621 21.6636C195.249 21.6636 199 17.9122 199 13.2846V9.37874C199 4.75117 195.249 0.999775 190.621 0.999775L160.379 0.999775C155.751 0.999775 152 4.75117 152 9.37874V13.2846C152 17.9122 155.751 21.6636 160.379 21.6636Z" fill="#375FFF"/>
<path d="M181.78 13.1553C182.787 13.1553 183.604 12.339 183.604 11.3321C183.604 10.3251 182.787 9.50879 181.78 9.50879C180.773 9.50879 179.957 10.3251 179.957 11.3321C179.957 12.339 180.773 13.1553 181.78 13.1553Z" fill="white"/>
<path d="M175.5 13.1553C176.507 13.1553 177.323 12.339 177.323 11.3321C177.323 10.3251 176.507 9.50879 175.5 9.50879C174.493 9.50879 173.677 10.3251 173.677 11.3321C173.677 12.339 174.493 13.1553 175.5 13.1553Z" fill="white"/>
<path d="M169.22 13.1553C170.227 13.1553 171.043 12.339 171.043 11.3321C171.043 10.3251 170.227 9.50879 169.22 9.50879C168.213 9.50879 167.396 10.3251 167.396 11.3321C167.396 12.339 168.213 13.1553 169.22 13.1553Z" fill="white"/>
</g>
<defs>
<clipPath id="clip0_973_2018">
<rect width="53" height="28.6703" fill="white" transform="matrix(-1 0 0 1 140.979 43)"/>
</clipPath>
<clipPath id="clip1_973_2018">
<rect x="162" width="100" height="100" rx="50" fill="white"/>
</clipPath>
<clipPath id="clip2_973_2018">
<rect width="111.111" height="219.523" fill="white" transform="translate(169.223 22.2222)"/>
</clipPath>
<clipPath id="clip3_973_2018">
<rect width="47" height="25.4246" fill="white" transform="translate(152 1)"/>
</clipPath>
</defs>
</svg>
