<svg width="124" height="32" viewBox="0 0 124 32" fill="none" xmlns="http://www.w3.org/2000/svg">
<path fill-rule="evenodd" clip-rule="evenodd" d="M16 0C7.16344 0 0 7.16344 0 16C0 20.7336 2.05556 24.987 5.32274 27.9164L2.33761 30.2066C1.57952 30.7882 1.99081 32 2.9463 32H15.0391C15.1095 32 15.1765 31.9939 15.2401 31.9823C15.4919 31.994 15.7453 32 16 32C24.8366 32 32 24.8366 32 16C32 7.16344 24.8366 0 16 0Z" fill="#D2D5F9"/>
<path d="M9 18C10.1046 18 11 17.1046 11 16C11 14.8954 10.1046 14 9 14C7.89543 14 7 14.8954 7 16C7 17.1046 7.89543 18 9 18Z" fill="#002DE3"/>
<path d="M16 18C17.1046 18 18 17.1046 18 16C18 14.8954 17.1046 14 16 14C14.8954 14 14 14.8954 14 16C14 17.1046 14.8954 18 16 18Z" fill="#002DE3"/>
<path d="M23 18C24.1046 18 25 17.1046 25 16C25 14.8954 24.1046 14 23 14C21.8954 14 21 14.8954 21 16C21 17.1046 21.8954 18 23 18Z" fill="#002DE3"/>
<path d="M49.7202 25.2159C47.9922 25.2159 46.4802 24.8559 45.1842 24.1359C43.9042 23.3999 42.9202 22.3759 42.2322 21.0639C41.5442 19.7359 41.2002 18.1919 41.2002 16.4319C41.2002 14.6879 41.5442 13.1599 42.2322 11.8479C42.9202 10.5199 43.9042 9.49594 45.1842 8.77594C46.4802 8.05594 47.9922 7.69594 49.7202 7.69594C50.8562 7.69594 51.9362 7.87194 52.9602 8.22394C54.0002 8.55994 54.8482 9.03994 55.5042 9.66394L54.3282 12.3519C53.5602 11.7759 52.8082 11.3599 52.0722 11.1039C51.3522 10.8319 50.5922 10.6959 49.7922 10.6959C48.2562 10.6959 47.0802 11.1839 46.2642 12.1599C45.4482 13.1359 45.0402 14.5599 45.0402 16.4319C45.0402 18.3199 45.4482 19.7599 46.2642 20.7519C47.0802 21.7279 48.2562 22.2159 49.7922 22.2159C50.5922 22.2159 51.3522 22.0879 52.0722 21.8319C52.8082 21.5599 53.5602 21.1359 54.3282 20.5599L55.5042 23.2479C54.8482 23.8719 54.0002 24.3599 52.9602 24.7119C51.9362 25.0479 50.8562 25.2159 49.7202 25.2159ZM65.4059 12.5199C68.2859 12.5199 69.7259 14.2239 69.7259 17.6319V24.9999H66.1019V17.7999C66.1019 16.9519 65.9419 16.3359 65.6219 15.9519C65.3179 15.5519 64.8299 15.3519 64.1579 15.3519C63.3579 15.3519 62.7179 15.6079 62.2379 16.1199C61.7579 16.6319 61.5179 17.3199 61.5179 18.1839V24.9999H57.8939V7.33594H61.5179V14.4879C61.9499 13.8479 62.5019 13.3599 63.1739 13.0239C63.8459 12.6879 64.5899 12.5199 65.4059 12.5199ZM84.8046 12.8319V24.9999H81.2286V23.1999C80.8606 23.8239 80.3406 24.3119 79.6686 24.6639C78.9966 25.0159 78.2366 25.1919 77.3886 25.1919C76.3326 25.1919 75.3966 24.9359 74.5806 24.4239C73.7806 23.9119 73.1486 23.1839 72.6846 22.2399C72.2366 21.2799 72.0126 20.1759 72.0126 18.9279C72.0126 17.6799 72.2366 16.5679 72.6846 15.5919C73.1486 14.6159 73.7886 13.8639 74.6046 13.3359C75.4206 12.7919 76.3486 12.5199 77.3886 12.5199C78.2366 12.5199 78.9966 12.7039 79.6686 13.0719C80.3406 13.4399 80.8606 13.9359 81.2286 14.5599V12.8319H84.8046ZM78.4446 22.4319C79.3406 22.4319 80.0286 22.1279 80.5086 21.5199C80.9886 20.9119 81.2286 20.0319 81.2286 18.8799C81.2286 17.7279 80.9886 16.8479 80.5086 16.2399C80.0286 15.6159 79.3406 15.3039 78.4446 15.3039C77.5486 15.3039 76.8526 15.6239 76.3566 16.2639C75.8606 16.9039 75.6126 17.7919 75.6126 18.9279C75.6126 20.0639 75.8526 20.9359 76.3326 21.5439C76.8286 22.1359 77.5326 22.4319 78.4446 22.4319ZM92.2898 15.5439V20.2719C92.2898 20.9439 92.4658 21.4399 92.8178 21.7599C93.1698 22.0639 93.6258 22.2159 94.1858 22.2159C94.5378 22.2159 94.9378 22.1599 95.3858 22.0479V24.8559C94.8098 25.0799 94.1138 25.1919 93.2978 25.1919C91.7938 25.1919 90.6418 24.7679 89.8418 23.9199C89.0578 23.0719 88.6658 21.8799 88.6658 20.3439V15.5439H86.3618V12.8319H88.6658V9.97594L92.2898 8.79994V12.8319H95.3858V15.5439H92.2898ZM108.165 19.2159H100.149C100.213 20.3519 100.509 21.1839 101.037 21.7119C101.565 22.2239 102.349 22.4799 103.389 22.4799C104.013 22.4799 104.637 22.3759 105.261 22.1679C105.885 21.9599 106.461 21.6559 106.989 21.2559L107.949 23.7039C107.373 24.1679 106.653 24.5359 105.789 24.8079C104.941 25.0639 104.085 25.1919 103.221 25.1919C101.173 25.1919 99.5655 24.6319 98.3975 23.5119C97.2295 22.3759 96.6455 20.8319 96.6455 18.8799C96.6455 17.6479 96.8935 16.5519 97.3895 15.5919C97.9015 14.6159 98.6135 13.8639 99.5255 13.3359C100.437 12.7919 101.469 12.5199 102.621 12.5199C104.333 12.5199 105.685 13.0799 106.677 14.1999C107.669 15.3039 108.165 16.7999 108.165 18.6879V19.2159ZM102.717 15.0639C102.029 15.0639 101.469 15.2639 101.037 15.6639C100.621 16.0639 100.349 16.6479 100.221 17.4159H105.045C104.853 15.8479 104.077 15.0639 102.717 15.0639ZM116.249 25.1919C114.953 25.1919 113.817 24.9359 112.841 24.4239C111.881 23.9119 111.137 23.1759 110.609 22.2159C110.097 21.2559 109.841 20.1359 109.841 18.8559C109.841 17.5759 110.097 16.4559 110.609 15.4959C111.137 14.5359 111.881 13.7999 112.841 13.2879C113.817 12.7759 114.953 12.5199 116.249 12.5199C117.529 12.5199 118.649 12.7759 119.609 13.2879C120.569 13.7999 121.305 14.5359 121.817 15.4959C122.345 16.4559 122.609 17.5759 122.609 18.8559C122.609 20.1359 122.345 21.2559 121.817 22.2159C121.305 23.1759 120.569 23.9119 119.609 24.4239C118.649 24.9359 117.529 25.1919 116.249 25.1919ZM116.249 22.4319C117.145 22.4319 117.825 22.1359 118.289 21.5439C118.769 20.9519 119.009 20.0559 119.009 18.8559C119.009 17.6719 118.769 16.7839 118.289 16.1919C117.825 15.5839 117.145 15.2799 116.249 15.2799C115.337 15.2799 114.641 15.5839 114.161 16.1919C113.681 16.7839 113.441 17.6719 113.441 18.8559C113.441 21.2399 114.377 22.4319 116.249 22.4319Z" fill="black"/>
</svg>
