<svg width="84" height="70" viewBox="0 0 84 70" fill="none" xmlns="http://www.w3.org/2000/svg">
<path fill-rule="evenodd" clip-rule="evenodd" d="M42 0C33.1634 0 26 7.16344 26 16C26 20.7336 28.0556 24.987 31.3227 27.9164L28.3376 30.2066C27.5795 30.7882 27.9908 32 28.9463 32H41.0391C41.1095 32 41.1765 31.9939 41.2401 31.9823C41.4919 31.994 41.7453 32 42 32C50.8366 32 58 24.8366 58 16C58 7.16344 50.8366 0 42 0Z" fill="#D2D5F9"/>
<path d="M35 18C36.1046 18 37 17.1046 37 16C37 14.8954 36.1046 14 35 14C33.8954 14 33 14.8954 33 16C33 17.1046 33.8954 18 35 18Z" fill="#002DE3"/>
<path d="M42 18C43.1046 18 44 17.1046 44 16C44 14.8954 43.1046 14 42 14C40.8954 14 40 14.8954 40 16C40 17.1046 40.8954 18 42 18Z" fill="#002DE3"/>
<path d="M49 18C50.1046 18 51 17.1046 51 16C51 14.8954 50.1046 14 49 14C47.8954 14 47 14.8954 47 16C47 17.1046 47.8954 18 49 18Z" fill="#002DE3"/>
<path d="M9.7202 64.2159C7.9922 64.2159 6.4802 63.8559 5.1842 63.1359C3.9042 62.3999 2.9202 61.3759 2.2322 60.0639C1.5442 58.7359 1.2002 57.1919 1.2002 55.4319C1.2002 53.6879 1.5442 52.1599 2.2322 50.8479C2.9202 49.5199 3.9042 48.4959 5.1842 47.7759C6.4802 47.0559 7.9922 46.6959 9.7202 46.6959C10.8562 46.6959 11.9362 46.8719 12.9602 47.2239C14.0002 47.5599 14.8482 48.0399 15.5042 48.6639L14.3282 51.3519C13.5602 50.7759 12.8082 50.3599 12.0722 50.1039C11.3522 49.8319 10.5922 49.6959 9.7922 49.6959C8.2562 49.6959 7.0802 50.1839 6.2642 51.1599C5.4482 52.1359 5.0402 53.5599 5.0402 55.4319C5.0402 57.3199 5.4482 58.7599 6.2642 59.7519C7.0802 60.7279 8.2562 61.2159 9.7922 61.2159C10.5922 61.2159 11.3522 61.0879 12.0722 60.8319C12.8082 60.5599 13.5602 60.1359 14.3282 59.5599L15.5042 62.2479C14.8482 62.8719 14.0002 63.3599 12.9602 63.7119C11.9362 64.0479 10.8562 64.2159 9.7202 64.2159ZM25.4059 51.5199C28.2859 51.5199 29.7259 53.2239 29.7259 56.6319V63.9999H26.1019V56.7999C26.1019 55.9519 25.9419 55.3359 25.6219 54.9519C25.3179 54.5519 24.8299 54.3519 24.1579 54.3519C23.3579 54.3519 22.7179 54.6079 22.2379 55.1199C21.7579 55.6319 21.5179 56.3199 21.5179 57.1839V63.9999H17.8939V46.3359H21.5179V53.4879C21.9499 52.8479 22.5019 52.3599 23.1739 52.0239C23.8459 51.6879 24.5899 51.5199 25.4059 51.5199ZM44.8046 51.8319V63.9999H41.2286V62.1999C40.8606 62.8239 40.3406 63.3119 39.6686 63.6639C38.9966 64.0159 38.2366 64.1919 37.3886 64.1919C36.3326 64.1919 35.3966 63.9359 34.5806 63.4239C33.7806 62.9119 33.1486 62.1839 32.6846 61.2399C32.2366 60.2799 32.0126 59.1759 32.0126 57.9279C32.0126 56.6799 32.2366 55.5679 32.6846 54.5919C33.1486 53.6159 33.7886 52.8639 34.6046 52.3359C35.4206 51.7919 36.3486 51.5199 37.3886 51.5199C38.2366 51.5199 38.9966 51.7039 39.6686 52.0719C40.3406 52.4399 40.8606 52.9359 41.2286 53.5599V51.8319H44.8046ZM38.4446 61.4319C39.3406 61.4319 40.0286 61.1279 40.5086 60.5199C40.9886 59.9119 41.2286 59.0319 41.2286 57.8799C41.2286 56.7279 40.9886 55.8479 40.5086 55.2399C40.0286 54.6159 39.3406 54.3039 38.4446 54.3039C37.5486 54.3039 36.8526 54.6239 36.3566 55.2639C35.8606 55.9039 35.6126 56.7919 35.6126 57.9279C35.6126 59.0639 35.8526 59.9359 36.3326 60.5439C36.8286 61.1359 37.5326 61.4319 38.4446 61.4319ZM52.2898 54.5439V59.2719C52.2898 59.9439 52.4658 60.4399 52.8178 60.7599C53.1698 61.0639 53.6258 61.2159 54.1858 61.2159C54.5378 61.2159 54.9378 61.1599 55.3858 61.0479V63.8559C54.8098 64.0799 54.1138 64.1919 53.2978 64.1919C51.7938 64.1919 50.6418 63.7679 49.8418 62.9199C49.0578 62.0719 48.6658 60.8799 48.6658 59.3439V54.5439H46.3618V51.8319H48.6658V48.9759L52.2898 47.7999V51.8319H55.3858V54.5439H52.2898ZM68.1655 58.2159H60.1495C60.2135 59.3519 60.5095 60.1839 61.0375 60.7119C61.5655 61.2239 62.3495 61.4799 63.3895 61.4799C64.0135 61.4799 64.6375 61.3759 65.2615 61.1679C65.8855 60.9599 66.4615 60.6559 66.9895 60.2559L67.9495 62.7039C67.3735 63.1679 66.6535 63.5359 65.7895 63.8079C64.9415 64.0639 64.0855 64.1919 63.2215 64.1919C61.1735 64.1919 59.5655 63.6319 58.3975 62.5119C57.2295 61.3759 56.6455 59.8319 56.6455 57.8799C56.6455 56.6479 56.8935 55.5519 57.3895 54.5919C57.9015 53.6159 58.6135 52.8639 59.5255 52.3359C60.4375 51.7919 61.4695 51.5199 62.6215 51.5199C64.3335 51.5199 65.6855 52.0799 66.6775 53.1999C67.6695 54.3039 68.1655 55.7999 68.1655 57.6879V58.2159ZM62.7175 54.0639C62.0295 54.0639 61.4695 54.2639 61.0375 54.6639C60.6215 55.0639 60.3495 55.6479 60.2215 56.4159H65.0455C64.8535 54.8479 64.0775 54.0639 62.7175 54.0639ZM76.2488 64.1919C74.9528 64.1919 73.8168 63.9359 72.8408 63.4239C71.8808 62.9119 71.1368 62.1759 70.6088 61.2159C70.0968 60.2559 69.8408 59.1359 69.8408 57.8559C69.8408 56.5759 70.0968 55.4559 70.6088 54.4959C71.1368 53.5359 71.8808 52.7999 72.8408 52.2879C73.8168 51.7759 74.9528 51.5199 76.2488 51.5199C77.5288 51.5199 78.6488 51.7759 79.6088 52.2879C80.5688 52.7999 81.3048 53.5359 81.8168 54.4959C82.3448 55.4559 82.6088 56.5759 82.6088 57.8559C82.6088 59.1359 82.3448 60.2559 81.8168 61.2159C81.3048 62.1759 80.5688 62.9119 79.6088 63.4239C78.6488 63.9359 77.5288 64.1919 76.2488 64.1919ZM76.2488 61.4319C77.1448 61.4319 77.8248 61.1359 78.2888 60.5439C78.7688 59.9519 79.0088 59.0559 79.0088 57.8559C79.0088 56.6719 78.7688 55.7839 78.2888 55.1919C77.8248 54.5839 77.1448 54.2799 76.2488 54.2799C75.3368 54.2799 74.6408 54.5839 74.1608 55.1919C73.6808 55.7839 73.4408 56.6719 73.4408 57.8559C73.4408 60.2399 74.3768 61.4319 76.2488 61.4319Z" fill="black"/>
</svg>
