<svg width="110" height="100" viewBox="0 0 110 100" fill="none" xmlns="http://www.w3.org/2000/svg">
<g clip-path="url(#clip0_1009_111)">
<rect x="10" width="100" height="100" rx="50" fill="#CDE1FD"/>
<g clip-path="url(#clip1_1009_111)">
<path d="M24.0953 56.6804C22.9739 55.8937 18.2189 50.113 17.6583 48.1702C17.0976 46.2273 16.676 38.9037 22.222 40.5683C27.768 42.233 25.2644 48.1006 29.1762 51.7994" fill="#F8CDBA"/>
<path d="M22.2387 35.3284L17.2217 39.3335L25.9477 50.2644L30.9648 46.2593L22.2387 35.3284Z" fill="#1F161E"/>
<path d="M92.8027 51.7993C94.1675 53.0685 108.124 76.5737 108.124 79.5162C108.124 82.4588 104.903 100.305 103.052 104.112C101.2 107.92 92.8027 51.7993 92.8027 51.7993Z" fill="#1F161E"/>
<path d="M84.5917 45.2578C104.681 45.2578 107.306 116.052 105.889 118.899C104.472 121.746 69.3446 121.415 66.4977 118.899C63.6508 116.382 66.1152 45.2578 84.5917 45.2578Z" fill="#002DE3"/>
<path d="M80.9805 47.6222C80.9805 48.8827 87.9347 48.9783 87.9347 47.6222V39.1729H80.9805V47.6222Z" fill="#F8CDBA"/>
<path d="M87.9429 44.2105C87.9429 43.4586 86.2043 40.8638 84.9004 41.3028C86.539 40.7247 87.3474 38.7515 87.9429 39.1557V44.2105Z" fill="#0F1828"/>
<path d="M81.372 42.0155C86.3673 42.0155 90.4168 37.9659 90.4168 32.9706C90.4168 27.9753 86.3673 23.9258 81.372 23.9258C76.3767 23.9258 72.3271 27.9753 72.3271 32.9706C72.3271 37.9659 76.3767 42.0155 81.372 42.0155Z" fill="#F8CDBA"/>
<path d="M72.2269 34.9704C73.0599 34.9704 73.7351 34.6181 73.7351 34.1837C73.7351 33.7492 73.0599 33.397 72.2269 33.397C71.394 33.397 70.7188 33.7492 70.7188 34.1837C70.7188 34.6181 71.394 34.9704 72.2269 34.9704Z" fill="#FA9E9F"/>
<path d="M81.7104 34.9704C82.5433 34.9704 83.2186 34.6181 83.2186 34.1837C83.2186 33.7492 82.5433 33.397 81.7104 33.397C80.8774 33.397 80.2021 33.7492 80.2021 34.1837C80.2021 34.6181 80.8774 34.9704 81.7104 34.9704Z" fill="#FA9E9F"/>
<path d="M75.8996 32.5537C75.6214 32.9579 74.1611 34.6487 75.6997 35.3311" stroke="#0F1828" stroke-width="0.69" stroke-miterlimit="10" stroke-linecap="round"/>
<path d="M78.751 37.3041C79.1856 37.3041 79.9028 36.7434 80.2722 36.2349" stroke="#0F1828" stroke-width="0.69" stroke-miterlimit="10" stroke-linecap="round"/>
<path d="M90.0166 27.6986C90.0166 24.5605 85.6398 22.2222 82.593 22.2222C77.7424 22.2222 71.8313 23.4044 70.8577 23.7478C69.2235 24.3171 68.9453 26.06 68.9453 26.6424C68.9453 29.0851 69.8146 30.6064 72.5267 30.9888C72.7124 30.1272 73.0322 29.3 73.4743 28.5375C74.2247 28.249 75.053 28.2351 75.8126 28.4984C76.4993 28.7374 82.2366 31.4409 86.483 31.4409C87.048 32.2362 88.2911 37.0912 87.926 39.1514C89.1691 39.2252 91.4596 35.1788 91.577 33.0664C91.6035 32.3415 91.4601 31.6204 91.1582 30.9608C90.8564 30.3012 90.4044 29.7214 89.8384 29.2677C89.8949 28.8113 90.0166 27.9464 90.0166 27.6986Z" fill="#0F1828"/>
<path d="M86.8832 35.3919C87.9826 35.3919 88.8739 34.5007 88.8739 33.4013C88.8739 32.3019 87.9826 31.4106 86.8832 31.4106C85.7838 31.4106 84.8926 32.3019 84.8926 33.4013C84.8926 34.5007 85.7838 35.3919 86.8832 35.3919Z" fill="#F8CDBA"/>
<path d="M89.873 64.382C84.892 71.9925 57.9618 83.9973 55.128 83.9973C47.6131 83.9973 25.3639 59.3054 24.0947 56.6715C25.5595 55.1068 28.6802 51.7905 29.167 51.7905C29.6538 51.7905 50.8337 66.4292 54.8368 66.4292C58.8398 66.4292 77.8118 53.0814 80.2805 52.4816" fill="#002DE3"/>
<path d="M73.5693 56.3024C76.8509 54.264 79.463 52.6775 80.2802 52.4819" stroke="#0F1828" stroke-linecap="round" stroke-linejoin="round"/>
<path d="M67.9326 78.9206C76.6254 74.7437 86.9742 68.8239 89.8732 64.3906" stroke="#0F1828" stroke-linecap="round" stroke-linejoin="round"/>
<path d="M66.5283 89.6912C66.7065 87.9918 75.5123 75.07 77.2118 74.0703C75.408 75.0743 68.5798 78.5384 67.9322 78.9209C67.5541 79.9336 66.5283 89.6912 66.5283 89.6912Z" fill="#1F161E"/>
</g>
</g>
<g clip-path="url(#clip2_1009_111)">
<path d="M40.9223 26.4247L34.8447 21.0562H41.0439L40.9223 26.4247Z" fill="#375FFF"/>
<path d="M8.37897 21.6636L38.621 21.6636C43.2486 21.6636 47 17.9122 47 13.2846V9.37874C47 4.75117 43.2486 0.999775 38.621 0.999775L8.37897 0.999775C3.75139 0.999775 0 4.75117 0 9.37874V13.2846C0 17.9122 3.75139 21.6636 8.37897 21.6636Z" fill="#375FFF"/>
<path d="M29.7803 13.1553C30.7873 13.1553 31.6036 12.339 31.6036 11.3321C31.6036 10.3251 30.7873 9.50879 29.7803 9.50879C28.7733 9.50879 27.957 10.3251 27.957 11.3321C27.957 12.339 28.7733 13.1553 29.7803 13.1553Z" fill="white"/>
<path d="M23.5 13.1553C24.507 13.1553 25.3233 12.339 25.3233 11.3321C25.3233 10.3251 24.507 9.50879 23.5 9.50879C22.4931 9.50879 21.6768 10.3251 21.6768 11.3321C21.6768 12.339 22.4931 13.1553 23.5 13.1553Z" fill="white"/>
<path d="M17.2198 13.1553C18.2267 13.1553 19.043 12.339 19.043 11.3321C19.043 10.3251 18.2267 9.50879 17.2198 9.50879C16.2128 9.50879 15.3965 10.3251 15.3965 11.3321C15.3965 12.339 16.2128 13.1553 17.2198 13.1553Z" fill="white"/>
</g>
<defs>
<clipPath id="clip0_1009_111">
<rect x="10" width="100" height="100" rx="50" fill="white"/>
</clipPath>
<clipPath id="clip1_1009_111">
<rect width="111.111" height="219.523" fill="white" transform="translate(17.2227 22.2222)"/>
</clipPath>
<clipPath id="clip2_1009_111">
<rect width="47" height="25.4246" fill="white" transform="translate(0 1)"/>
</clipPath>
</defs>
</svg>
